<svg xmlns="http://www.w3.org/2000/svg" width="133" height="133" viewBox="0 0 133 133"><g><g><path fill="#5484a7" d="M66.5 0C103.227 0 133 29.773 133 66.5c0 36.727-29.773 66.5-66.5 66.5C29.773 133 0 103.227 0 66.5 0 29.773 29.773 0 66.5 0z"/></g><g><path fill="#fff" d="M77.514 57.092L64.438 69.688v3.495h3.498l12.608-13.064zm.027-5.089c.542 0 1.083.207 1.496.62l5.98 5.975a2.112 2.112 0 0 1 0 2.988L69.739 77.418h-9.54v-9.53L76.047 52.62a2.111 2.111 0 0 1 1.495-.618zM81.397 75.3a2.12 2.12 0 0 1 4.24 0v8.472a2.12 2.12 0 0 1-2.12 2.119H53.84a2.12 2.12 0 0 1-2.12-2.119v-29.65c0-1.17.95-2.119 2.12-2.119h8.48a2.119 2.119 0 1 1 0 4.236h-5.3a1.06 1.06 0 0 0-1.06 1.059v23.298c0 .585.474 1.059 1.06 1.059h23.318a1.06 1.06 0 0 0 1.06-1.06z"/></g></g></svg>